<?xml version="1.0" encoding="UTF-8" standalone="no"?><!DOCTYPE svg PUBLIC "-//W3C//DTD SVG 1.1//EN" "http://www.w3.org/Graphics/SVG/1.1/DTD/svg11.dtd"><svg width="100%" height="100%" viewBox="0 0 701 309" version="1.1" xmlns="http://www.w3.org/2000/svg" xmlns:xlink="http://www.w3.org/1999/xlink" xml:space="preserve" xmlns:serif="http://www.serif.com/" style="fill-rule:evenodd;clip-rule:evenodd;stroke-linejoin:round;stroke-miterlimit:2;"><rect id="Favicon-Bryan-Hannes" serif:id="Favicon Bryan Hannes" x="0" y="0.967" width="701" height="307.439" style="fill:none;"/><g><g><path d="M97.555,66.392c7.606,2.467 13.637,6.588 18.095,12.365c4.459,5.777 6.688,12.949 6.688,21.516c-0,11.813 -4.59,20.932 -13.768,27.358c-9.179,6.426 -22.553,9.639 -40.124,9.639l-68.446,-0l0,-136.303l64.513,0c16.259,0 28.781,3.148 37.566,9.444c8.785,6.296 13.178,14.961 13.178,25.995c0,6.75 -1.573,12.721 -4.72,17.914c-3.147,5.192 -7.474,9.216 -12.982,12.072Zm-71.986,-45.564l-0,37.581l36.19,-0c8.916,-0 15.767,-1.59 20.553,-4.771c4.786,-3.18 7.179,-7.821 7.179,-13.922c0,-6.231 -2.393,-10.937 -7.179,-14.117c-4.786,-3.18 -11.637,-4.771 -20.553,-4.771l-36.19,0Zm41.304,96.58c19.799,0 29.699,-6.555 29.699,-19.666c0,-13.111 -9.9,-19.667 -29.699,-19.667l-41.304,0l-0,39.333l41.304,0Z" style="fill:#202126;fill-rule:nonzero;"/><path d="M160.888,48.478c7.081,-10.904 19.537,-16.356 37.37,-16.356l-0,23.171c-2.098,-0.389 -3.999,-0.584 -5.704,-0.584c-9.572,0 -17.046,2.759 -22.422,8.276c-5.376,5.517 -8.064,13.468 -8.064,23.853l-0,50.432l-24.586,-0l0,-103.98l23.406,0l-0,15.188Z" style="fill:#202126;fill-rule:nonzero;"/><path d="M319.416,33.29l-49.172,112.352c-4.589,11.294 -10.162,19.245 -16.718,23.853c-6.556,4.609 -14.489,6.913 -23.799,6.913c-5.244,-0 -10.424,-0.844 -15.538,-2.532c-5.113,-1.687 -9.309,-4.024 -12.587,-7.009l9.834,-17.914c2.36,2.206 5.146,3.959 8.359,5.257c3.212,1.298 6.458,1.947 9.736,1.947c4.327,0 7.9,-1.103 10.719,-3.31c2.819,-2.207 5.409,-5.906 7.769,-11.099l1.77,-4.089l-45.827,-104.369l25.569,0l33.043,76.914l33.239,-76.914l23.603,0Z" style="fill:#202126;fill-rule:nonzero;"/><path d="M369.57,32.122c15.473,0 27.306,3.667 35.502,11.002c8.195,7.334 12.292,18.4 12.292,33.199l0,60.947l-23.208,-0l-0,-12.657c-3.016,4.543 -7.31,8.016 -12.883,10.417c-5.573,2.402 -12.293,3.603 -20.16,3.603c-7.868,-0 -14.752,-1.331 -20.652,-3.992c-5.901,-2.661 -10.457,-6.361 -13.67,-11.099c-3.212,-4.738 -4.819,-10.093 -4.819,-16.064c0,-9.347 3.508,-16.843 10.523,-22.49c7.015,-5.647 18.062,-8.47 33.141,-8.47l27.143,-0l-0,-1.558c-0,-7.27 -2.196,-12.851 -6.589,-16.746c-4.393,-3.894 -10.916,-5.841 -19.57,-5.841c-5.901,-0 -11.703,0.908 -17.407,2.726c-5.704,1.817 -10.522,4.348 -14.456,7.594l-9.638,-17.72c5.508,-4.154 12.129,-7.334 19.866,-9.541c7.736,-2.207 15.931,-3.31 24.585,-3.31Zm-3.344,88.791c6.163,0 11.638,-1.395 16.424,-4.186c4.786,-2.791 8.162,-6.783 10.129,-11.975l-0,-12.073l-25.372,0c-14.162,0 -21.242,4.609 -21.242,13.825c-0,4.414 1.77,7.919 5.31,10.515c3.54,2.596 8.458,3.894 14.751,3.894Z" style="fill:#202126;fill-rule:nonzero;"/><path d="M498.595,32.122c13.244,0 23.864,3.829 31.863,11.488c7.998,7.659 11.998,19.018 11.998,34.076l-0,59.584l-24.586,-0l0,-56.469c0,-9.086 -2.163,-15.934 -6.49,-20.542c-4.327,-4.609 -10.49,-6.913 -18.489,-6.913c-9.047,0 -16.193,2.694 -21.438,8.081c-5.245,5.387 -7.868,13.143 -7.868,23.269l0,52.574l-24.585,-0l-0,-103.98l23.405,0l0,13.436c4.065,-4.803 9.179,-8.438 15.342,-10.904c6.162,-2.467 13.112,-3.7 20.848,-3.7Z" style="fill:#202126;fill-rule:nonzero;"/></g><g><path d="M122.338,168.618l-0,136.302l-25.569,-0l-0,-58.415l-71.2,-0l-0,58.415l-25.569,-0l-0,-136.302l25.569,-0l-0,56.273l71.2,-0l-0,-56.273l25.569,-0Z" style="fill:#202126;fill-rule:nonzero;"/><path d="M187.244,199.772c15.472,0 27.306,3.668 35.501,11.002c8.195,7.334 12.293,18.401 12.293,33.199l-0,60.947l-23.209,-0l0,-12.657c-3.016,4.544 -7.31,8.016 -12.883,10.418c-5.572,2.401 -12.292,3.602 -20.16,3.602c-7.867,-0 -14.751,-1.331 -20.652,-3.992c-5.9,-2.661 -10.457,-6.361 -13.669,-11.099c-3.213,-4.738 -4.819,-10.093 -4.819,-16.064c-0,-9.346 3.508,-16.843 10.523,-22.49c7.015,-5.647 18.062,-8.47 33.141,-8.47l27.142,-0l0,-1.558c0,-7.269 -2.196,-12.851 -6.589,-16.745c-4.392,-3.895 -10.916,-5.842 -19.57,-5.842c-5.9,0 -11.702,0.909 -17.406,2.726c-5.704,1.817 -10.523,4.349 -14.457,7.594l-9.637,-17.719c5.507,-4.154 12.129,-7.335 19.865,-9.541c7.736,-2.207 15.931,-3.311 24.586,-3.311Zm-3.344,88.792c6.163,-0 11.637,-1.396 16.423,-4.187c4.786,-2.791 8.163,-6.782 10.129,-11.975l0,-12.072l-25.372,-0c-14.161,-0 -21.242,4.608 -21.242,13.825c0,4.413 1.77,7.918 5.311,10.514c3.54,2.596 8.457,3.895 14.751,3.895Z" style="fill:#202126;fill-rule:nonzero;"/><path d="M316.269,199.772c13.243,0 23.864,3.83 31.862,11.489c7.999,7.659 11.998,19.017 11.998,34.075l0,59.584l-24.585,-0l-0,-56.468c-0,-9.087 -2.164,-15.935 -6.491,-20.543c-4.327,-4.608 -10.49,-6.912 -18.488,-6.912c-9.048,-0 -16.194,2.693 -21.439,8.08c-5.245,5.388 -7.867,13.144 -7.867,23.269l-0,52.574l-24.586,-0l0,-103.979l23.406,-0l-0,13.435c4.064,-4.803 9.178,-8.438 15.341,-10.904c6.163,-2.466 13.112,-3.7 20.849,-3.7Z" style="fill:#202126;fill-rule:nonzero;"/><path d="M441.163,199.772c13.244,0 23.865,3.83 31.863,11.489c7.999,7.659 11.998,19.017 11.998,34.075l-0,59.584l-24.586,-0l0,-56.468c0,-9.087 -2.163,-15.935 -6.49,-20.543c-4.327,-4.608 -10.49,-6.912 -18.489,-6.912c-9.047,-0 -16.193,2.693 -21.438,8.08c-5.245,5.388 -7.868,13.144 -7.868,23.269l0,52.574l-24.585,-0l-0,-103.979l23.405,-0l0,13.435c4.065,-4.803 9.179,-8.438 15.342,-10.904c6.162,-2.466 13.112,-3.7 20.848,-3.7Z" style="fill:#202126;fill-rule:nonzero;"/><path d="M606.182,253.514c-0,1.688 -0.132,4.09 -0.394,7.205l-82.411,-0c1.443,7.659 5.212,13.728 11.31,18.206c6.097,4.479 13.669,6.718 22.717,6.718c11.539,-0 21.045,-3.765 28.519,-11.294l13.178,14.993c-4.721,5.582 -10.687,9.801 -17.898,12.657c-7.212,2.856 -15.342,4.284 -24.389,4.284c-11.539,-0 -21.701,-2.272 -30.486,-6.815c-8.786,-4.544 -15.571,-10.872 -20.357,-18.985c-4.786,-8.113 -7.179,-17.298 -7.179,-27.553c-0,-10.125 2.327,-19.244 6.982,-27.358c4.655,-8.113 11.113,-14.441 19.374,-18.985c8.26,-4.543 17.57,-6.815 27.929,-6.815c10.227,0 19.373,2.24 27.437,6.718c8.064,4.479 14.358,10.775 18.882,18.888c4.524,8.113 6.786,17.492 6.786,28.136Zm-53.105,-34.27c-7.868,0 -14.522,2.304 -19.964,6.913c-5.441,4.608 -8.752,10.742 -9.932,18.4l59.595,0c-1.049,-7.529 -4.261,-13.63 -9.637,-18.303c-5.377,-4.673 -12.064,-7.01 -20.062,-7.01Z" style="fill:#202126;fill-rule:nonzero;"/><path d="M652.402,306.283c-8.523,-0 -16.849,-1.103 -24.979,-3.31c-8.129,-2.207 -14.62,-4.998 -19.471,-8.373l9.441,-18.498c4.72,3.115 10.391,5.614 17.013,7.496c6.621,1.883 13.145,2.824 19.57,2.824c14.686,-0 22.028,-3.83 22.028,-11.489c0,-3.634 -1.868,-6.166 -5.605,-7.594c-3.737,-1.428 -9.736,-2.791 -17.997,-4.089c-8.654,-1.298 -15.702,-2.791 -21.143,-4.478c-5.442,-1.688 -10.162,-4.641 -14.162,-8.86c-3.999,-4.219 -5.998,-10.093 -5.998,-17.622c-0,-9.865 4.163,-17.752 12.489,-23.658c8.326,-5.906 19.57,-8.86 33.731,-8.86c7.212,0 14.424,0.812 21.636,2.434c7.212,1.623 13.112,3.797 17.701,6.523l-9.44,18.499c-8.917,-5.193 -18.948,-7.789 -30.093,-7.789c-7.212,-0 -12.686,1.071 -16.423,3.213c-3.737,2.142 -5.606,4.965 -5.606,8.47c0,3.894 2,6.653 5.999,8.275c3.999,1.623 10.195,3.148 18.587,4.576c8.392,1.298 15.276,2.791 20.652,4.479c5.376,1.687 9.998,4.543 13.866,8.567c3.868,4.025 5.802,9.736 5.802,17.136c-0,9.735 -4.261,17.524 -12.784,23.366c-8.523,5.841 -20.128,8.762 -34.814,8.762Z" style="fill:#202126;fill-rule:nonzero;"/></g></g></svg>