<?xml version="1.0" encoding="UTF-8" standalone="no"?><!DOCTYPE svg PUBLIC "-//W3C//DTD SVG 1.1//EN" "http://www.w3.org/Graphics/SVG/1.1/DTD/svg11.dtd"><svg width="100%" height="100%" viewBox="0 0 1328 178" version="1.1" xmlns="http://www.w3.org/2000/svg" xmlns:xlink="http://www.w3.org/1999/xlink" xml:space="preserve" xmlns:serif="http://www.serif.com/" style="fill-rule:evenodd;clip-rule:evenodd;stroke-linejoin:round;stroke-miterlimit:2;"><g><path d="M98.877,66.57c7.651,2.482 13.719,6.628 18.204,12.439c4.485,5.812 6.728,13.027 6.728,21.647c-0,11.884 -4.617,21.058 -13.851,27.523c-9.234,6.464 -22.69,9.696 -40.366,9.696l-68.86,0l0,-137.125l64.902,-0c16.358,-0 28.955,3.167 37.794,9.501c8.838,6.334 13.257,15.051 13.257,26.152c0,6.791 -1.583,12.798 -4.749,18.022c-3.166,5.224 -7.519,9.272 -13.059,12.145Zm-72.422,-45.839l0,37.808l36.409,-0c8.97,-0 15.863,-1.6 20.678,-4.8c4.815,-3.199 7.222,-7.868 7.222,-14.006c-0,-6.269 -2.407,-11.003 -7.222,-14.203c-4.815,-3.199 -11.708,-4.799 -20.678,-4.799l-36.409,0Zm41.554,97.163c19.919,0 29.878,-6.595 29.878,-19.785c0,-13.19 -9.959,-19.785 -29.878,-19.785l-41.554,-0l0,39.57l41.554,0Z" style="fill:#202126;fill-rule:nonzero;"/><path d="M162.592,48.548c7.123,-10.97 19.655,-16.455 37.595,-16.455l0,23.311c-2.11,-0.392 -4.023,-0.587 -5.738,-0.587c-9.63,-0 -17.149,2.775 -22.557,8.325c-5.409,5.55 -8.113,13.549 -8.113,23.997l-0,50.736l-24.734,0l-0,-104.607l23.547,0l-0,15.28Z" style="fill:#202126;fill-rule:nonzero;"/><path d="M322.077,33.268l-49.468,113.031c-4.617,11.362 -10.224,19.361 -16.82,23.997c-6.595,4.636 -14.576,6.954 -23.942,6.954c-5.277,0 -10.487,-0.849 -15.632,-2.547c-5.145,-1.697 -9.366,-4.048 -12.664,-7.052l9.894,-18.022c2.374,2.22 5.177,3.983 8.409,5.289c3.232,1.306 6.497,1.959 9.795,1.959c4.353,0 7.948,-1.11 10.784,-3.33c2.836,-2.22 5.442,-5.942 7.816,-11.166l1.781,-4.114l-46.104,-104.999l25.723,0l33.243,77.378l33.44,-77.378l23.745,0Z" style="fill:#202126;fill-rule:nonzero;"/><path d="M372.534,32.093c15.566,-0 27.471,3.689 35.716,11.068c8.245,7.379 12.367,18.512 12.367,33.4l0,61.314l-23.349,0l0,-12.733c-3.034,4.571 -7.354,8.065 -12.96,10.481c-5.607,2.416 -12.368,3.624 -20.282,3.624c-7.915,-0 -14.841,-1.339 -20.777,-4.016c-5.936,-2.677 -10.52,-6.399 -13.752,-11.166c-3.232,-4.767 -4.848,-10.154 -4.848,-16.161c0,-9.403 3.529,-16.945 10.586,-22.626c7.058,-5.681 18.171,-8.521 33.342,-8.521l27.306,-0l0,-1.567c0,-7.314 -2.21,-12.929 -6.629,-16.847c-4.419,-3.918 -10.982,-5.877 -19.688,-5.877c-5.936,-0 -11.773,0.914 -17.512,2.742c-5.738,1.829 -10.586,4.375 -14.543,7.64l-9.696,-17.826c5.54,-4.179 12.202,-7.379 19.985,-9.599c7.783,-2.22 16.028,-3.33 24.734,-3.33Zm-3.364,89.327c6.2,0 11.708,-1.404 16.523,-4.211c4.815,-2.808 8.211,-6.824 10.19,-12.048l0,-12.145l-25.525,-0c-14.247,-0 -21.371,4.636 -21.371,13.908c0,4.441 1.781,7.967 5.343,10.579c3.562,2.611 8.508,3.917 14.84,3.917Z" style="fill:#202126;fill-rule:nonzero;"/><path d="M502.338,32.093c13.324,-0 24.009,3.852 32.056,11.558c8.046,7.705 12.07,19.132 12.07,34.281l-0,59.943l-24.734,0l-0,-56.809c-0,-9.141 -2.177,-16.03 -6.53,-20.666c-4.353,-4.637 -10.553,-6.955 -18.6,-6.955c-9.102,0 -16.291,2.71 -21.568,8.13c-5.277,5.42 -7.915,13.223 -7.915,23.409l0,52.891l-24.734,0l0,-104.607l23.547,0l-0,13.517c4.089,-4.832 9.234,-8.489 15.434,-10.97c6.2,-2.481 13.191,-3.722 20.974,-3.722Z" style="fill:#202126;fill-rule:nonzero;"/><path d="M746.117,0.75l0,137.125l-25.723,0l-0,-58.768l-71.63,0l-0,58.768l-25.724,0l0,-137.125l25.724,-0l-0,56.613l71.63,0l-0,-56.613l25.723,-0Z" style="fill:#202126;fill-rule:nonzero;"/><path d="M811.415,32.093c15.566,-0 27.471,3.689 35.716,11.068c8.244,7.379 12.367,18.512 12.367,33.4l-0,61.314l-23.349,0l-0,-12.733c-3.034,4.571 -7.354,8.065 -12.961,10.481c-5.606,2.416 -12.367,3.624 -20.282,3.624c-7.915,-0 -14.84,-1.339 -20.776,-4.016c-5.936,-2.677 -10.52,-6.399 -13.752,-11.166c-3.232,-4.767 -4.848,-10.154 -4.848,-16.161c-0,-9.403 3.528,-16.945 10.586,-22.626c7.057,-5.681 18.171,-8.521 33.341,-8.521l27.307,-0l-0,-1.567c-0,-7.314 -2.21,-12.929 -6.629,-16.847c-4.419,-3.918 -10.982,-5.877 -19.688,-5.877c-5.936,-0 -11.774,0.914 -17.512,2.742c-5.738,1.829 -10.586,4.375 -14.544,7.64l-9.695,-17.826c5.54,-4.179 12.202,-7.379 19.985,-9.599c7.783,-2.22 16.027,-3.33 24.734,-3.33Zm-3.364,89.327c6.2,0 11.707,-1.404 16.522,-4.211c4.815,-2.808 8.212,-6.824 10.191,-12.048l-0,-12.145l-25.526,-0c-14.247,-0 -21.37,4.636 -21.37,13.908c0,4.441 1.781,7.967 5.343,10.579c3.561,2.611 8.508,3.917 14.84,3.917Z" style="fill:#202126;fill-rule:nonzero;"/><path d="M941.219,32.093c13.323,-0 24.009,3.852 32.055,11.558c8.047,7.705 12.071,19.132 12.071,34.281l-0,59.943l-24.734,0l-0,-56.809c-0,-9.141 -2.177,-16.03 -6.53,-20.666c-4.353,-4.637 -10.553,-6.955 -18.6,-6.955c-9.102,0 -16.292,2.71 -21.568,8.13c-5.277,5.42 -7.915,13.223 -7.915,23.409l-0,52.891l-24.734,0l-0,-104.607l23.547,0l-0,13.517c4.089,-4.832 9.234,-8.489 15.434,-10.97c6.2,-2.481 13.191,-3.722 20.974,-3.722Z" style="fill:#202126;fill-rule:nonzero;"/><path d="M1066.87,32.093c13.323,-0 24.009,3.852 32.055,11.558c8.047,7.705 12.071,19.132 12.071,34.281l-0,59.943l-24.735,0l0,-56.809c0,-9.141 -2.176,-16.03 -6.529,-20.666c-4.353,-4.637 -10.553,-6.955 -18.6,-6.955c-9.102,0 -16.292,2.71 -21.568,8.13c-5.277,5.42 -7.915,13.223 -7.915,23.409l-0,52.891l-24.734,0l-0,-104.607l23.546,0l0,13.517c4.09,-4.832 9.235,-8.489 15.435,-10.97c6.2,-2.481 13.191,-3.722 20.974,-3.722Z" style="fill:#202126;fill-rule:nonzero;"/><path d="M1232.88,86.16c-0,1.697 -0.132,4.113 -0.396,7.248l-82.908,-0c1.451,7.705 5.243,13.81 11.377,18.316c6.134,4.505 13.752,6.758 22.855,6.758c11.608,-0 21.172,-3.787 28.691,-11.362l13.257,15.084c-4.748,5.616 -10.751,9.86 -18.006,12.733c-7.255,2.873 -15.434,4.31 -24.536,4.31c-11.609,-0 -21.832,-2.286 -30.67,-6.857c-8.839,-4.57 -15.665,-10.937 -20.48,-19.099c-4.815,-8.162 -7.222,-17.402 -7.222,-27.719c-0,-10.187 2.341,-19.361 7.024,-27.523c4.683,-8.162 11.18,-14.529 19.49,-19.1c8.311,-4.571 17.677,-6.856 28.098,-6.856c10.29,-0 19.491,2.253 27.604,6.758c8.112,4.506 14.444,10.84 18.995,19.002c4.551,8.162 6.827,17.598 6.827,28.307Zm-53.426,-34.478c-7.915,0 -14.609,2.318 -20.084,6.954c-5.474,4.637 -8.805,10.807 -9.992,18.512l59.955,0c-1.055,-7.574 -4.287,-13.712 -9.696,-18.414c-5.408,-4.701 -12.136,-7.052 -20.183,-7.052Z" style="fill:#202126;fill-rule:nonzero;"/><path d="M1279.38,139.247c-8.575,-0 -16.951,-1.11 -25.13,-3.33c-8.179,-2.221 -14.708,-5.028 -19.589,-8.424l9.498,-18.61c4.749,3.134 10.454,5.648 17.116,7.542c6.661,1.894 13.224,2.841 19.688,2.841c14.774,-0 22.162,-3.853 22.162,-11.558c-0,-3.657 -1.88,-6.203 -5.64,-7.64c-3.759,-1.437 -9.795,-2.808 -18.105,-4.114c-8.707,-1.306 -15.797,-2.808 -21.271,-4.505c-5.475,-1.698 -10.224,-4.669 -14.247,-8.913c-4.024,-4.245 -6.035,-10.154 -6.035,-17.729c-0,-9.925 4.188,-17.859 12.565,-23.801c8.376,-5.942 19.688,-8.913 33.935,-8.913c7.255,-0 14.51,0.816 21.766,2.449c7.255,1.632 13.191,3.82 17.808,6.562l-9.498,18.61c-8.97,-5.224 -19.061,-7.836 -30.274,-7.836c-7.256,0 -12.763,1.078 -16.523,3.232c-3.759,2.155 -5.639,4.996 -5.639,8.522c0,3.918 2.012,6.693 6.035,8.325c4.024,1.633 10.257,3.167 18.699,4.604c8.443,1.306 15.368,2.808 20.777,4.505c5.408,1.698 10.058,4.571 13.95,8.62c3.891,4.048 5.837,9.794 5.837,17.238c-0,9.795 -4.287,17.631 -12.862,23.507c-8.574,5.877 -20.249,8.816 -35.023,8.816Z" style="fill:#202126;fill-rule:nonzero;"/></g></svg>