<?xml version="1.0" standalone="no"?>
<!DOCTYPE svg PUBLIC "-//W3C//DTD SVG 20010904//EN"
 "http://www.w3.org/TR/2001/REC-SVG-20010904/DTD/svg10.dtd">
<svg version="1.0" xmlns="http://www.w3.org/2000/svg"
 width="1402.000000pt" height="1402.000000pt" viewBox="0 0 1402.000000 1402.000000"
 preserveAspectRatio="xMidYMid meet">
<metadata>
Created by potrace 1.14, written by Peter Selinger 2001-2017
</metadata>
<g transform="translate(0.000000,1402.000000) scale(0.100000,-0.100000)"
fill="#000000" stroke="none">
<path d="M73 10082 l-73 -3 0 -1362 0 -1363 768 2 c422 1 792 5 822 8 82 8
225 31 225 36 0 1 13 3 29 5 16 2 36 7 45 11 9 4 18 8 21 9 109 28 257 109
341 187 48 44 111 132 138 192 64 140 74 352 25 521 -56 194 -225 363 -438
439 -16 5 -10 13 36 45 78 55 115 89 156 146 20 28 39 52 42 55 5 4 31 56 35
70 1 3 7 19 14 35 21 53 22 59 35 130 15 86 12 199 -7 285 -14 65 -54 162 -69
168 -4 2 -8 9 -8 17 0 23 -120 144 -188 189 -69 45 -172 96 -196 96 -7 0 -16
3 -20 7 -3 4 -12 8 -19 9 -7 1 -39 9 -72 18 -33 9 -73 19 -90 21 -188 25 -166
25 -990 28 -269 1 -523 1 -562 -1z m1302 -406 c33 -4 78 -12 100 -18 22 -6 46
-13 53 -14 33 -6 130 -61 163 -91 38 -35 75 -98 87 -148 4 -16 7 -66 7 -110
-1 -139 -63 -233 -193 -296 -59 -29 -74 -34 -132 -45 -14 -2 -32 -7 -40 -11
-8 -3 -216 -7 -462 -9 l-446 -3 -1 374 c-1 340 1 374 16 377 30 6 786 0 848
-6z m195 -1155 c202 -46 304 -124 346 -263 27 -87 10 -236 -35 -308 -20 -34
-89 -98 -125 -117 -40 -21 -134 -53 -175 -59 -18 -3 -43 -8 -55 -11 -11 -3
-245 -7 -518 -9 l-497 -2 0 386 c0 212 2 389 5 393 8 13 993 3 1054 -10z"/>
<path d="M3830 9452 c-19 -1 -62 -7 -95 -13 -33 -6 -70 -13 -83 -15 -45 -9
-150 -51 -214 -87 -68 -38 -189 -147 -201 -181 -15 -38 -20 -3 -20 133 1 120
-2 140 -16 143 -13 3 -421 2 -443 -1 -5 -1 -8 -468 -8 -1039 l0 -1038 239 1
c132 0 242 3 245 6 4 3 8 264 10 580 2 408 7 587 16 619 6 25 13 52 15 60 2 9
18 47 36 85 40 87 138 188 224 232 101 52 299 83 392 63 21 -5 33 -4 35 4 3 6
4 110 4 231 l-1 220 -50 0 c-27 0 -66 -1 -85 -3z"/>
<path d="M7257 9454 c-1 -1 -31 -5 -67 -9 -36 -4 -79 -8 -95 -10 -38 -4 -162
-32 -195 -44 -14 -5 -53 -17 -87 -28 -35 -10 -63 -21 -63 -25 0 -5 -7 -8 -15
-8 -18 0 -130 -59 -191 -101 -31 -21 -42 -34 -36 -42 5 -7 30 -50 55 -97 47
-89 105 -193 123 -223 10 -17 16 -15 77 26 56 38 164 89 217 103 8 2 49 13 90
24 41 11 98 22 125 25 63 7 232 7 265 0 14 -3 41 -8 60 -11 97 -18 247 -116
265 -175 4 -11 10 -19 14 -19 15 0 51 -134 55 -202 l4 -68 -292 0 c-293 -1
-426 -4 -481 -14 -17 -2 -51 -7 -76 -10 -51 -6 -209 -53 -223 -67 -6 -5 -16
-9 -23 -9 -22 0 -133 -82 -181 -135 -96 -105 -145 -244 -140 -395 6 -205 92
-359 264 -475 51 -34 177 -92 219 -100 6 -1 13 -3 18 -5 12 -4 55 -12 142 -26
62 -10 281 -3 355 12 19 4 42 8 50 10 24 4 55 12 55 14 0 1 7 3 16 5 29 5 132
56 176 86 49 34 86 69 121 113 12 16 22 25 23 20 1 -5 2 -61 2 -124 l2 -115
230 0 230 0 0 660 c0 746 -2 778 -53 925 -92 270 -310 440 -632 495 -25 5 -56
10 -70 12 -26 4 -328 11 -333 7z m594 -1213 c1 -3 3 -55 4 -116 2 -103 1 -114
-26 -170 -52 -112 -174 -206 -324 -251 -92 -27 -279 -25 -368 4 -38 13 -74 27
-80 32 -96 76 -127 127 -131 213 -6 107 43 195 131 238 27 13 53 24 58 26 121
27 155 29 436 29 164 0 300 -2 300 -5z"/>
<path d="M9858 9455 c-2 -2 -28 -6 -58 -9 -201 -24 -394 -115 -517 -245 l-33
-34 -1 69 c0 38 0 98 1 134 l1 65 -233 0 -233 0 0 -1040 0 -1040 243 0 242 -1
0 326 c1 777 6 907 37 980 3 8 7 21 9 29 4 19 52 108 73 135 73 93 196 172
299 191 15 3 38 7 52 10 14 3 66 5 116 6 268 2 433 -128 490 -386 4 -16 8
-311 9 -655 2 -344 4 -627 4 -630 1 -3 110 -6 244 -5 l242 0 0 665 c0 596 -4
735 -21 792 -3 9 -7 27 -9 39 -27 140 -113 289 -226 392 -104 95 -246 167
-375 191 -16 2 -40 7 -54 11 -25 6 -297 15 -302 10z"/>
<path d="M4095 9400 c7 -19 27 -66 45 -105 47 -104 56 -123 96 -216 20 -46 43
-100 52 -119 9 -19 16 -37 16 -40 1 -3 9 -21 18 -40 9 -19 25 -55 36 -80 71
-161 98 -223 125 -285 16 -38 40 -92 53 -120 12 -27 54 -124 94 -215 40 -91
106 -241 147 -335 42 -93 88 -199 103 -235 15 -36 36 -83 46 -105 10 -22 18
-42 19 -45 0 -3 11 -25 23 -49 12 -25 22 -53 22 -63 0 -50 -109 -238 -171
-295 -44 -40 -147 -75 -224 -76 -48 0 -141 16 -167 29 -15 8 -29 14 -30 13
-10 -3 -70 28 -111 57 -27 19 -53 34 -58 32 -6 -2 -52 -80 -103 -173 -87 -158
-93 -171 -77 -187 27 -29 130 -86 200 -112 133 -49 202 -60 366 -60 261 1 448
88 610 285 37 45 95 139 95 153 0 8 4 16 8 18 8 3 72 131 72 144 0 5 9 25 66
152 13 29 35 80 49 113 14 33 39 88 55 123 16 35 59 133 95 217 71 164 77 177
124 282 17 38 31 70 31 72 0 3 11 28 24 57 53 117 67 150 136 308 39 91 77
179 84 195 49 108 171 387 184 420 9 22 20 43 25 46 5 3 8 8 7 10 -3 8 15 51
78 192 17 37 28 68 24 68 -23 4 -455 3 -462 -1 -4 -3 -22 -39 -40 -80 -48
-112 -56 -129 -89 -203 -17 -38 -31 -74 -31 -81 0 -6 -4 -16 -8 -21 -5 -6 -28
-55 -52 -110 -23 -55 -53 -124 -66 -153 -13 -29 -24 -55 -24 -57 0 -3 -13 -33
-29 -67 -16 -35 -45 -103 -66 -153 -21 -49 -41 -94 -45 -100 -4 -5 -11 -21
-15 -35 -4 -14 -23 -58 -41 -98 -19 -41 -34 -75 -34 -77 0 -3 -11 -28 -24 -57
-14 -29 -42 -95 -64 -146 l-39 -94 -16 34 c-17 36 -467 1084 -575 1338 -36 85
-67 157 -69 160 -3 2 -118 5 -257 5 l-253 0 12 -35z"/>
<path d="M0 5365 l0 -1363 255 0 255 0 0 86 c1 48 1 311 1 585 l0 497 712 0
712 0 0 -584 0 -584 255 1 255 2 0 1360 0 1360 -253 2 c-190 2 -252 -1 -253
-10 -1 -7 -2 -259 -3 -562 l-1 -550 -712 -1 -712 -1 0 561 0 561 -255 2 -256
1 0 -1363z"/>
<path d="M3637 6104 c-1 -1 -34 -5 -74 -8 -137 -13 -334 -58 -433 -99 -14 -6
-27 -11 -30 -11 -19 -3 -186 -95 -211 -115 l-31 -26 52 -95 c28 -52 58 -111
68 -130 9 -19 20 -37 23 -40 4 -3 15 -24 25 -46 l18 -42 55 38 c98 67 263 132
396 155 79 14 281 13 351 -1 91 -19 92 -19 100 -27 4 -4 16 -7 26 -7 10 0 18
-3 18 -8 0 -4 14 -13 32 -21 62 -28 148 -139 164 -213 3 -13 8 -34 11 -48 3
-14 6 -52 7 -84 l1 -59 -370 -3 c-203 -1 -379 -4 -390 -7 -11 -2 -53 -10 -93
-17 -93 -15 -220 -60 -289 -102 -78 -47 -164 -137 -204 -214 -19 -37 -35 -70
-35 -75 -1 -5 -2 -10 -4 -11 -2 -3 -4 -12 -16 -68 -9 -46 -10 -184 0 -240 15
-88 84 -218 149 -281 122 -119 289 -194 483 -217 139 -16 318 -4 432 29 37 11
75 21 85 24 50 12 150 77 212 140 l71 70 -1 -122 0 -121 233 0 232 0 0 122 c2
512 -1 1173 -5 1230 -3 38 -10 87 -16 110 -6 22 -12 48 -14 56 -15 75 -50 157
-101 237 -32 50 -149 173 -165 173 -4 0 -14 6 -21 13 -24 24 -185 99 -243 113
-16 4 -32 8 -35 9 -5 1 -46 9 -100 20 -61 12 -353 28 -363 19z m561 -1213 c9
-1 12 -32 12 -121 0 -140 -13 -177 -95 -268 -39 -43 -158 -126 -161 -112 0 3
-8 -1 -17 -8 -50 -41 -308 -66 -401 -38 -25 8 -46 12 -46 10 0 -10 -102 48
-133 76 -62 54 -90 153 -73 249 14 72 63 132 134 162 23 10 43 18 45 18 1 0
15 4 30 10 16 6 59 14 95 17 37 4 68 7 69 8 1 1 520 -1 541 -3z"/>
<path d="M6227 6099 c-14 -4 -28 -5 -30 -2 -18 17 -341 -75 -381 -108 -6 -5
-39 -28 -74 -51 -35 -23 -73 -53 -85 -67 -54 -62 -54 -62 -54 75 0 69 -3 127
-6 130 -4 4 -181 6 -398 5 l-65 -1 0 -1037 1 -1038 243 -2 c133 -1 243 2 243
5 1 4 3 268 4 587 2 319 6 591 10 605 3 14 8 38 11 53 19 103 84 219 161 287
111 97 218 134 388 134 66 0 134 -3 150 -6 131 -27 232 -99 293 -208 28 -51
60 -145 61 -180 0 -8 2 -24 5 -35 2 -11 5 -295 5 -632 l1 -611 244 0 c218 0
245 2 248 17 6 28 1 1264 -5 1306 -4 22 -9 60 -12 85 -2 25 -9 60 -14 78 -5
18 -9 33 -9 35 1 1 -7 27 -17 57 -21 64 -79 176 -106 206 -10 11 -19 23 -19
27 0 21 -193 177 -220 177 -5 0 -10 4 -10 9 0 5 -8 11 -17 14 -10 3 -43 15
-73 26 -115 45 -212 61 -371 65 -42 1 -87 -1 -102 -5z"/>
<path d="M8685 6100 c-22 -4 -56 -11 -75 -14 -19 -3 -45 -8 -57 -11 -13 -3
-33 -7 -45 -10 -54 -11 -238 -94 -238 -107 0 -4 -6 -8 -13 -8 -7 0 -45 -30
-85 -66 l-72 -66 0 131 c0 98 -3 131 -12 131 -19 1 -302 1 -386 1 l-72 -1 0
-1040 0 -1039 247 2 246 2 3 595 c2 515 4 603 18 655 9 33 18 65 19 70 1 6 16
38 32 70 53 111 211 240 315 259 14 2 25 5 25 6 0 6 58 12 155 15 125 3 190
-8 275 -50 46 -22 145 -105 145 -121 0 -4 7 -15 15 -24 19 -21 62 -136 70
-191 13 -77 13 -102 14 -700 l1 -587 245 0 245 0 1 131 c1 73 1 136 0 140 -2
10 -2 31 -2 120 0 37 0 74 0 82 0 15 0 453 0 478 0 34 1 134 1 152 -1 11 -1
54 -1 95 0 41 -2 95 -5 120 -3 25 -7 61 -9 80 -14 134 -77 293 -155 395 -58
76 -120 135 -140 135 -6 0 -10 4 -10 9 0 11 -22 24 -125 74 -95 46 -160 65
-290 83 -67 10 -199 11 -223 2 -15 -5 -21 -4 -17 2 3 6 5 10 3 9 -2 -1 -21 -5
-43 -9z"/>
<path d="M10987 6103 c-1 0 -32 -4 -69 -7 -131 -11 -314 -69 -428 -136 -173
-101 -325 -261 -397 -415 -10 -22 -21 -42 -24 -45 -7 -7 -56 -157 -68 -211
-35 -155 -33 -326 5 -514 33 -165 136 -348 271 -483 59 -58 200 -164 223 -167
3 -1 28 -13 57 -28 48 -25 182 -74 228 -83 11 -2 31 -6 45 -9 14 -3 36 -7 50
-10 121 -27 431 -23 531 5 18 5 35 8 37 5 3 -3 11 0 19 6 7 6 13 9 13 6 0 -4
18 0 40 8 22 8 41 14 43 14 21 -5 230 104 286 149 61 49 131 114 131 122 0 3
-16 23 -36 45 -19 22 -56 65 -82 95 -26 30 -67 77 -92 105 -24 27 -46 52 -47
53 -1 2 -30 -19 -64 -47 -102 -82 -232 -143 -338 -157 -25 -3 -49 -8 -53 -10
-10 -6 -206 -6 -245 0 -154 23 -290 87 -385 179 -68 67 -102 107 -90 107 4 0
2 4 -4 8 -21 15 -79 166 -71 186 3 8 233 11 817 11 446 0 816 3 822 6 21 13
11 280 -16 414 -3 17 -25 98 -31 115 -26 74 -114 250 -126 250 -4 0 -11 9 -14
20 -11 34 -175 192 -250 241 -178 115 -364 169 -603 173 -46 0 -84 0 -85 -1z
m191 -396 c136 -22 263 -95 352 -203 60 -73 120 -209 120 -272 l0 -27 -591 2
c-326 1 -593 4 -595 6 -3 3 22 98 33 127 4 8 7 17 8 20 17 55 89 154 150 208
51 45 132 95 152 95 7 0 13 3 13 7 0 8 91 31 150 37 25 3 46 6 47 7 4 3 130
-2 161 -7z"/>
<path d="M13047 6104 c-1 -1 -31 -5 -67 -8 -53 -4 -138 -18 -195 -30 -100 -23
-238 -84 -317 -142 -56 -42 -128 -111 -128 -124 0 -4 -3 -10 -7 -12 -10 -4
-64 -87 -68 -102 -1 -6 -5 -18 -8 -26 -21 -50 -34 -148 -31 -232 3 -99 3 -99
24 -168 36 -117 144 -230 288 -300 82 -40 276 -89 447 -115 17 -2 44 -7 60
-10 82 -14 102 -18 128 -21 38 -5 173 -40 227 -59 84 -30 120 -81 116 -167 -7
-149 -147 -215 -451 -212 -143 2 -264 17 -345 43 -14 5 -59 19 -100 32 -41 13
-94 34 -117 46 -24 13 -45 23 -48 23 -9 -1 -69 32 -87 47 -15 14 -19 10 -44
-39 -14 -29 -31 -56 -36 -59 -5 -3 -9 -9 -8 -13 3 -10 -53 -120 -62 -124 -5
-2 -8 -9 -8 -15 0 -7 -12 -34 -26 -61 -14 -26 -24 -49 -22 -50 2 -2 30 -18 63
-37 158 -91 405 -163 635 -186 122 -12 414 -5 470 12 8 2 29 7 45 10 74 13 92
17 144 36 31 12 62 21 69 22 6 0 12 4 12 9 0 4 7 8 15 8 8 0 37 14 66 31 233
137 342 333 315 567 -19 174 -70 264 -199 356 -90 64 -190 104 -332 136 -22 4
-50 11 -61 13 -12 3 -37 8 -55 11 -40 7 -241 43 -284 51 -55 10 -182 44 -211
56 -30 13 -39 16 -52 18 -4 0 -24 17 -44 35 -88 83 -66 217 45 284 90 53 153
66 332 66 88 1 180 -3 205 -7 25 -5 58 -10 74 -13 16 -3 37 -9 47 -15 11 -5
19 -7 19 -5 0 9 139 -44 202 -75 32 -16 59 -29 62 -29 2 0 19 30 37 68 19 37
38 70 42 73 5 3 7 8 6 10 -2 2 20 50 49 106 29 56 52 104 52 107 0 16 -235
109 -309 122 -14 3 -46 10 -71 15 -25 6 -56 12 -70 14 -14 2 -39 6 -56 9 -73
13 -368 28 -377 20z"/>
</g>
</svg>
